Asap-Bold.ufo
<glyph name="dollar" format="1">
  <advance width="496"/>
  <unicode hex="0024"/>
  <outline>
    <contour>
      <point x="242" y="768"/>
      <point x="233" y="759"/>
      <point x="233" y="738" type="curve" smooth="yes"/>
      <point x="233" y="706" type="line"/>
      <point x="129" y="695"/>
      <point x="33" y="634"/>
      <point x="33" y="503" type="curve" smooth="yes"/>
      <point x="33" y="360"/>
      <point x="144" y="321"/>
      <point x="233" y="288" type="curve"/>
      <point x="233" y="123" type="line"/>
      <point x="154" y="123"/>
      <point x="99" y="169"/>
      <point x="81" y="169" type="curve" smooth="yes"/>
      <point x="60" y="169"/>
      <point x="19" y="111"/>
      <point x="19" y="80" type="curve" smooth="yes"/>
      <point x="19" y="47"/>
      <point x="94" y="-3"/>
      <point x="233" y="-7" type="curve"/>
      <point x="233" y="-51" type="line" smooth="yes"/>
      <point x="233" y="-72"/>
      <point x="242" y="-81"/>
      <point x="263" y="-81" type="curve" smooth="yes"/>
      <point x="281" y="-81"/>
      <point x="290" y="-72"/>
      <point x="290" y="-51" type="curve" smooth="yes"/>
      <point x="290" y="-6" type="line"/>
      <point x="387" y="5"/>
      <point x="480" y="66"/>
      <point x="480" y="214" type="curve" smooth="yes"/>
      <point x="480" y="345"/>
      <point x="375" y="387"/>
      <point x="290" y="424" type="curve"/>
      <point x="290" y="576" type="line"/>
      <point x="353" y="574"/>
      <point x="382" y="551"/>
      <point x="395" y="551" type="curve" smooth="yes"/>
      <point x="419" y="551"/>
      <point x="450" y="611"/>
      <point x="450" y="638" type="curve" smooth="yes"/>
      <point x="450" y="669"/>
      <point x="385" y="703"/>
      <point x="290" y="707" type="curve"/>
      <point x="290" y="738" type="line" smooth="yes"/>
      <point x="290" y="759"/>
      <point x="281" y="768"/>
      <point x="260" y="768" type="curve" smooth="yes"/>
    </contour>
    <contour>
      <point x="316" y="246"/>
      <point x="333" y="224"/>
      <point x="333" y="196" type="curve" smooth="yes"/>
      <point x="333" y="163"/>
      <point x="314" y="144"/>
      <point x="290" y="134" type="curve"/>
      <point x="290" y="261" type="line"/>
    </contour>
    <contour>
      <point x="233" y="450" type="line"/>
      <point x="202" y="467"/>
      <point x="181" y="487"/>
      <point x="181" y="517" type="curve" smooth="yes"/>
      <point x="181" y="534"/>
      <point x="189" y="559"/>
      <point x="233" y="570" type="curve"/>
    </contour>
  </outline>
</glyph>
<glyph name="comma" format="1">
  <advance width="198"/>
  <unicode hex="002C"/>
  <outline>
    <contour>
      <point x="95" y="154" type="line" smooth="yes"/>
      <point x="53" y="154"/>
      <point x="35" y="137"/>
      <point x="35" y="110" type="curve" smooth="yes"/>
      <point x="35" y="12"/>
      <point x="13" y="-38"/>
      <point x="0" y="-70" type="curve" smooth="yes"/>
      <point x="-5" y="-83"/>
      <point x="-9" y="-94"/>
      <point x="-9" y="-103" type="curve" smooth="yes"/>
      <point x="-9" y="-119"/>
      <point x="18" y="-125"/>
      <point x="36" y="-125" type="curve" smooth="yes"/>
      <point x="80" y="-125"/>
      <point x="174" y="-2"/>
      <point x="174" y="110" type="curve" smooth="yes"/>
      <point x="174" y="135"/>
      <point x="156" y="154"/>
      <point x="114" y="154" type="curve" smooth="yes"/>
    </contour>
  </outline>
</glyph>
<glyph name="B" format="1">
  <advance width="593"/>
  <unicode hex="0042"/>
  <outline>
    <contour>
      <point x="109" y="700" type="line" smooth="yes"/>
      <point x="81" y="700"/>
      <point x="69" y="688"/>
      <point x="69" y="660" type="curve" smooth="yes"/>
      <point x="69" y="40" type="line" smooth="yes"/>
      <point x="69" y="12"/>
      <point x="81" y="0"/>
      <point x="109" y="0" type="curve" smooth="yes"/>
      <point x="321" y="0" type="line" smooth="yes"/>
      <point x="490" y="0"/>
      <point x="571" y="74"/>
      <point x="571" y="203" type="curve" smooth="yes"/>
      <point x="571" y="280"/>
      <point x="516" y="351"/>
      <point x="436" y="367" type="curve"/>
      <point x="435" y="371" type="line"/>
      <point x="495" y="396"/>
      <point x="543" y="455"/>
      <point x="543" y="523" type="curve" smooth="yes"/>
      <point x="543" y="628"/>
      <point x="476" y="700"/>
      <point x="307" y="700" type="curve" smooth="yes"/>
    </contour>
    <contour>
      <point x="374" y="290"/>
      <point x="413" y="264"/>
      <point x="413" y="212" type="curve" smooth="yes"/>
      <point x="413" y="160"/>
      <point x="379" y="131"/>
      <point x="321" y="131" type="curve" smooth="yes"/>
      <point x="223" y="131" type="line"/>
      <point x="223" y="290" type="line"/>
      <point x="305" y="290" type="line" smooth="yes"/>
    </contour>
    <contour>
      <point x="355" y="570"/>
      <point x="385" y="545"/>
      <point x="385" y="496" type="curve" smooth="yes"/>
      <point x="385" y="454"/>
      <point x="352" y="421"/>
      <point x="292" y="421" type="curve" smooth="yes"/>
      <point x="223" y="421" type="line"/>
      <point x="223" y="570" type="line"/>
      <point x="294" y="570" type="line" smooth="yes"/>
    </contour>
  </outline>
</glyph>
<glyph name="T" format="1">
  <advance width="549"/>
  <unicode hex="0054"/>
  <outline>
    <contour>
      <point x="38" y="700" type="line" smooth="yes"/>
      <point x="17" y="700"/>
      <point x="8" y="685"/>
      <point x="8" y="650" type="curve" smooth="yes"/>
      <point x="8" y="619" type="line" smooth="yes"/>
      <point x="8" y="584"/>
      <point x="17" y="569"/>
      <point x="38" y="569" type="curve" smooth="yes"/>
      <point x="197" y="569" type="line"/>
      <point x="197" y="30" type="line" smooth="yes"/>
      <point x="197" y="9"/>
      <point x="215" y="-2"/>
      <point x="257" y="-2" type="curve" smooth="yes"/>
      <point x="292" y="-2" type="line" smooth="yes"/>
      <point x="334" y="-2"/>
      <point x="352" y="9"/>
      <point x="352" y="30" type="curve" smooth="yes"/>
      <point x="352" y="569" type="line"/>
      <point x="511" y="569" type="line" smooth="yes"/>
      <point x="532" y="569"/>
      <point x="541" y="584"/>
      <point x="541" y="619" type="curve" smooth="yes"/>
      <point x="541" y="650" type="line" smooth="yes"/>
      <point x="541" y="685"/>
      <point x="532" y="700"/>
      <point x="511" y="700" type="curve" smooth="yes"/>
    </contour>
    <contour>
      <point x="275" y="350" type="move" name="center"/>
    </contour>
    <contour>
      <point x="275" y="0" type="move" name="bottom"/>
    </contour>
    <contour>
      <point x="275" y="700" type="move" name="top"/>
    </contour>
  </outline>
</glyph>
<glyph name="d" format="1">
  <advance width="565"/>
  <unicode hex="0064"/>
  <outline>
    <contour>
      <point x="415" y="754" type="line" smooth="yes"/>
      <point x="373" y="754"/>
      <point x="355" y="743"/>
      <point x="355" y="722" type="curve" smooth="yes"/>
      <point x="355" y="500" type="line"/>
      <point x="334" y="515"/>
      <point x="300" y="531"/>
      <point x="253" y="531" type="curve" smooth="yes"/>
      <point x="118" y="531"/>
      <point x="42" y="425"/>
      <point x="42" y="262" type="curve" smooth="yes"/>
      <point x="42" y="88"/>
      <point x="121" y="-8"/>
      <point x="229" y="-8" type="curve" smooth="yes"/>
      <point x="291" y="-8"/>
      <point x="340" y="24"/>
      <point x="363" y="67" type="curve"/>
      <point x="369" y="41"/>
      <point x="371" y="-1"/>
      <point x="403" y="-1" type="curve" smooth="yes"/>
      <point x="428" y="-1"/>
      <point x="515" y="7"/>
      <point x="515" y="31" type="curve" smooth="yes"/>
      <point x="515" y="52"/>
      <point x="503" y="73"/>
      <point x="503" y="176" type="curve" smooth="yes"/>
      <point x="503" y="722" type="line" smooth="yes"/>
      <point x="503" y="743"/>
      <point x="485" y="754"/>
      <point x="443" y="754" type="curve" smooth="yes"/>
    </contour>
    <contour>
      <point x="316" y="414"/>
      <point x="339" y="404"/>
      <point x="355" y="395" type="curve"/>
      <point x="355" y="172" type="line"/>
      <point x="337" y="141"/>
      <point x="311" y="113"/>
      <point x="273" y="113" type="curve" smooth="yes"/>
      <point x="218" y="113"/>
      <point x="192" y="165"/>
      <point x="192" y="262" type="curve" smooth="yes"/>
      <point x="192" y="362"/>
      <point x="222" y="414"/>
      <point x="285" y="414" type="curve" smooth="yes"/>
    </contour>
    <contour>
      <point x="498" y="700" type="move" name="caron"/>
    </contour>
    <contour>
      <point x="291" y="0" type="move" name="bottom"/>
    </contour>
    <contour>
      <point x="417" y="630" type="move" name="center"/>
    </contour>
  </outline>
</glyph>
<glyph name="e" format="1">
  <advance width="539"/>
  <unicode hex="0065"/>
  <outline>
    <contour>
      <point x="142" y="531"/>
      <point x="42" y="455"/>
      <point x="42" y="258" type="curve" smooth="yes"/>
      <point x="42" y="97"/>
      <point x="122" y="-8"/>
      <point x="303" y="-8" type="curve" smooth="yes"/>
      <point x="359" y="-8"/>
      <point x="483" y="14"/>
      <point x="483" y="64" type="curve" smooth="yes"/>
      <point x="483" y="84"/>
      <point x="453" y="140"/>
      <point x="431" y="140" type="curve" smooth="yes"/>
      <point x="417" y="140"/>
      <point x="373" y="109"/>
      <point x="310" y="109" type="curve" smooth="yes"/>
      <point x="245" y="109"/>
      <point x="202" y="134"/>
      <point x="195" y="214" type="curve"/>
      <point x="450" y="214" type="line" smooth="yes"/>
      <point x="463" y="214"/>
      <point x="501" y="256"/>
      <point x="501" y="273" type="curve" smooth="yes"/>
      <point x="501" y="412"/>
      <point x="442" y="531"/>
      <point x="285" y="531" type="curve" smooth="yes"/>
    </contour>
    <contour>
      <point x="335" y="414"/>
      <point x="357" y="371"/>
      <point x="357" y="313" type="curve"/>
      <point x="195" y="313" type="line"/>
      <point x="207" y="390"/>
      <point x="243" y="414"/>
      <point x="285" y="414" type="curve" smooth="yes"/>
    </contour>
    <contour>
      <point x="437" y="14" type="move" name="ogonek"/>
    </contour>
    <contour>
      <point x="270" y="0" type="move" name="bottom"/>
    </contour>
    <contour>
      <point x="270" y="523" type="move" name="top"/>
    </contour>
  </outline>
</glyph>
<glyph name="g" format="1">
  <advance width="546"/>
  <unicode hex="0067"/>
  <outline>
    <contour>
      <point x="148" y="531"/>
      <point x="52" y="482"/>
      <point x="52" y="353" type="curve" smooth="yes"/>
      <point x="52" y="279"/>
      <point x="84" y="231"/>
      <point x="133" y="204" type="curve"/>
      <point x="95" y="184"/>
      <point x="73" y="155"/>
      <point x="73" y="121" type="curve" smooth="yes"/>
      <point x="73" y="88"/>
      <point x="88" y="60"/>
      <point x="116" y="46" type="curve"/>
      <point x="115" y="42" type="line"/>
      <point x="56" y="19"/>
      <point x="24" y="-22"/>
      <point x="24" y="-74" type="curve" smooth="yes"/>
      <point x="24" y="-165"/>
      <point x="101" y="-212"/>
      <point x="262" y="-212" type="curve" smooth="yes"/>
      <point x="417" y="-212"/>
      <point x="520" y="-145"/>
      <point x="520" y="-42" type="curve" smooth="yes"/>
      <point x="520" y="58"/>
      <point x="442" y="88"/>
      <point x="365" y="103" type="curve" smooth="yes"/>
      <point x="290" y="116"/>
      <point x="217" y="116"/>
      <point x="217" y="149" type="curve" smooth="yes"/>
      <point x="217" y="167"/>
      <point x="237" y="176"/>
      <point x="278" y="176" type="curve" smooth="yes"/>
      <point x="392" y="176"/>
      <point x="482" y="228"/>
      <point x="482" y="353" type="curve" smooth="yes"/>
      <point x="482" y="372"/>
      <point x="475" y="397"/>
      <point x="466" y="409" type="curve"/>
      <point x="468" y="413" type="line"/>
      <point x="477" y="411"/>
      <point x="504" y="409"/>
      <point x="511" y="409" type="curve" smooth="yes"/>
      <point x="527" y="409"/>
      <point x="535" y="423"/>
      <point x="535" y="456" type="curve" smooth="yes"/>
      <point x="535" y="473" type="line" smooth="yes"/>
      <point x="535" y="508"/>
      <point x="526" y="523"/>
      <point x="505" y="523" type="curve" smooth="yes"/>
      <point x="344" y="523" type="line"/>
      <point x="320" y="528"/>
      <point x="294" y="531"/>
      <point x="267" y="531" type="curve" smooth="yes"/>
    </contour>
    <contour>
      <point x="336" y="-4"/>
      <point x="376" y="-15"/>
      <point x="376" y="-46" type="curve" smooth="yes"/>
      <point x="376" y="-76"/>
      <point x="342" y="-95"/>
      <point x="273" y="-95" type="curve" smooth="yes"/>
      <point x="199" y="-95"/>
      <point x="168" y="-77"/>
      <point x="168" y="-50" type="curve" smooth="yes"/>
      <point x="168" y="-30"/>
      <point x="187" y="-8"/>
      <point x="222" y="4" type="curve"/>
    </contour>
    <contour>
      <point x="308" y="424"/>
      <point x="342" y="403"/>
      <point x="342" y="353" type="curve" smooth="yes"/>
      <point x="342" y="303"/>
      <point x="308" y="283"/>
      <point x="267" y="283" type="curve" smooth="yes"/>
      <point x="226" y="283"/>
      <point x="192" y="303"/>
      <point x="192" y="353" type="curve" smooth="yes"/>
      <point x="192" y="403"/>
      <point x="226" y="424"/>
      <point x="267" y="424" type="curve" smooth="yes"/>
    </contour>
    <contour>
      <point x="273" y="523" type="move" name="top"/>
    </contour>
  </outline>
</glyph>
<glyph name="i" format="1">
  <advance width="265"/>
  <unicode hex="0069"/>
  <outline>
    <contour>
      <point x="119" y="525" type="line" smooth="yes"/>
      <point x="77" y="525"/>
      <point x="59" y="514"/>
      <point x="59" y="493" type="curve" smooth="yes"/>
      <point x="59" y="30" type="line" smooth="yes"/>
      <point x="59" y="9"/>
      <point x="77" y="-2"/>
      <point x="119" y="-2" type="curve" smooth="yes"/>
      <point x="147" y="-2" type="line" smooth="yes"/>
      <point x="189" y="-2"/>
      <point x="207" y="9"/>
      <point x="207" y="30" type="curve" smooth="yes"/>
      <point x="207" y="493" type="line" smooth="yes"/>
      <point x="207" y="514"/>
      <point x="189" y="525"/>
      <point x="147" y="525" type="curve" smooth="yes"/>
    </contour>
    <contour>
      <point x="119" y="754" type="line" smooth="yes"/>
      <point x="77" y="754"/>
      <point x="59" y="743"/>
      <point x="59" y="722" type="curve" smooth="yes"/>
      <point x="59" y="641" type="line" smooth="yes"/>
      <point x="59" y="620"/>
      <point x="77" y="609"/>
      <point x="119" y="609" type="curve"/>
      <point x="147" y="609" type="line" smooth="yes"/>
      <point x="189" y="609"/>
      <point x="207" y="620"/>
      <point x="207" y="641" type="curve" smooth="yes"/>
      <point x="207" y="722" type="line" smooth="yes"/>
      <point x="207" y="743"/>
      <point x="189" y="754"/>
      <point x="147" y="754" type="curve" smooth="yes"/>
    </contour>
    <contour>
      <point x="131" y="0" type="move" name="bottom"/>
    </contour>
  </outline>
</glyph>
<glyph name="uni00B2" format="1">
  <advance width="320"/>
  <unicode hex="00B2"/>
  <outline>
    <contour>
      <point x="93" y="706"/>
      <point x="32" y="687"/>
      <point x="32" y="653" type="curve" smooth="yes"/>
      <point x="32" y="637"/>
      <point x="48" y="613"/>
      <point x="66" y="613" type="curve" smooth="yes"/>
      <point x="74" y="613"/>
      <point x="96" y="637"/>
      <point x="134" y="637" type="curve" smooth="yes"/>
      <point x="164" y="637"/>
      <point x="188" y="622"/>
      <point x="188" y="590" type="curve" smooth="yes"/>
      <point x="188" y="568"/>
      <point x="179" y="549"/>
      <point x="166" y="533" type="curve" smooth="yes"/>
      <point x="18" y="353" type="line" smooth="yes"/>
      <point x="17" y="351"/>
      <point x="16" y="348"/>
      <point x="16" y="344" type="curve" smooth="yes"/>
      <point x="16" y="327"/>
      <point x="24" y="292"/>
      <point x="33" y="292" type="curve"/>
      <point x="265" y="292" type="line" smooth="yes"/>
      <point x="278" y="292"/>
      <point x="283" y="301"/>
      <point x="283" y="322" type="curve" smooth="yes"/>
      <point x="283" y="332" type="line" smooth="yes"/>
      <point x="283" y="352"/>
      <point x="278" y="360"/>
      <point x="265" y="360" type="curve" smooth="yes"/>
      <point x="131" y="360" type="line"/>
      <point x="240" y="496" type="line" smooth="yes"/>
      <point x="261" y="522"/>
      <point x="276" y="554"/>
      <point x="276" y="592" type="curve" smooth="yes"/>
      <point x="276" y="658"/>
      <point x="230" y="706"/>
      <point x="149" y="706" type="curve" smooth="yes"/>
    </contour>
  </outline>
</glyph>
<glyph name="uni00B3" format="1">
  <advance width="320"/>
  <unicode hex="00B3"/>
  <outline>
    <contour>
      <point x="89" y="708"/>
      <point x="33" y="694"/>
      <point x="33" y="665" type="curve" smooth="yes"/>
      <point x="33" y="649"/>
      <point x="51" y="620"/>
      <point x="63" y="620" type="curve" smooth="yes"/>
      <point x="73" y="620"/>
      <point x="87" y="639"/>
      <point x="132" y="639" type="curve" smooth="yes"/>
      <point x="164" y="639"/>
      <point x="180" y="620"/>
      <point x="180" y="591" type="curve" smooth="yes"/>
      <point x="180" y="562"/>
      <point x="157" y="542"/>
      <point x="119" y="542" type="curve" smooth="yes"/>
      <point x="108" y="542" type="line" smooth="yes"/>
      <point x="96" y="542"/>
      <point x="90" y="534"/>
      <point x="90" y="513" type="curve" smooth="yes"/>
      <point x="90" y="502" type="line" smooth="yes"/>
      <point x="90" y="482"/>
      <point x="96" y="473"/>
      <point x="108" y="473" type="curve" smooth="yes"/>
      <point x="124" y="473" type="line" smooth="yes"/>
      <point x="174" y="473"/>
      <point x="193" y="452"/>
      <point x="193" y="413" type="curve" smooth="yes"/>
      <point x="193" y="377"/>
      <point x="170" y="356"/>
      <point x="135" y="356" type="curve" smooth="yes"/>
      <point x="87" y="356"/>
      <point x="60" y="380"/>
      <point x="50" y="380" type="curve" smooth="yes"/>
      <point x="36" y="380"/>
      <point x="21" y="347"/>
      <point x="21" y="336" type="curve" smooth="yes"/>
      <point x="21" y="299"/>
      <point x="104" y="287"/>
      <point x="148" y="287" type="curve" smooth="yes"/>
      <point x="227" y="287"/>
      <point x="281" y="334"/>
      <point x="281" y="412" type="curve" smooth="yes"/>
      <point x="281" y="460"/>
      <point x="259" y="498"/>
      <point x="213" y="516" type="curve"/>
      <point x="213" y="520" type="line"/>
      <point x="247" y="535"/>
      <point x="268" y="565"/>
      <point x="268" y="605" type="curve" smooth="yes"/>
      <point x="268" y="668"/>
      <point x="221" y="708"/>
      <point x="147" y="708" type="curve" smooth="yes"/>
    </contour>
  </outline>
</glyph>
<glyph name="uni00B9" format="1">
  <advance width="217"/>
  <unicode hex="00B9"/>
  <outline>
    <contour>
      <point x="30" y="678" type="line" smooth="yes"/>
      <point x="20" y="676"/>
      <point x="15" y="670"/>
      <point x="15" y="661" type="curve" smooth="yes"/>
      <point x="15" y="645"/>
      <point x="19" y="611"/>
      <point x="34" y="611" type="curve"/>
      <point x="113" y="624" type="line"/>
      <point x="113" y="312" type="line" smooth="yes"/>
      <point x="113" y="300"/>
      <point x="124" y="293"/>
      <point x="148" y="293" type="curve"/>
      <point x="164" y="293" type="line" smooth="yes"/>
      <point x="188" y="293"/>
      <point x="199" y="300"/>
      <point x="199" y="312" type="curve" smooth="yes"/>
      <point x="199" y="690" type="line" smooth="yes"/>
      <point x="199" y="697"/>
      <point x="184" y="704"/>
      <point x="176" y="704" type="curve"/>
    </contour>
  </outline>
</glyph>
<glyph name="guillemotright" format="1">
  <advance width="471"/>
  <unicode hex="00BB"/>
  <outline>
    <contour>
      <point x="281" y="469"/>
      <point x="241" y="443"/>
      <point x="241" y="420" type="curve" smooth="yes"/>
      <point x="241" y="413"/>
      <point x="244" y="406"/>
      <point x="250" y="398" type="curve" smooth="yes"/>
      <point x="360" y="258" type="line"/>
      <point x="250" y="118" type="line" smooth="yes"/>
      <point x="244" y="110"/>
      <point x="241" y="103"/>
      <point x="241" y="95" type="curve" smooth="yes"/>
      <point x="241" y="75"/>
      <point x="278" y="46"/>
      <point x="300" y="46" type="curve" smooth="yes"/>
      <point x="309" y="46"/>
      <point x="318" y="51"/>
      <point x="327" y="61" type="curve" smooth="yes"/>
      <point x="454" y="214" type="line" smooth="yes"/>
      <point x="466" y="228"/>
      <point x="470" y="240"/>
      <point x="470" y="258" type="curve" smooth="yes"/>
      <point x="470" y="276"/>
      <point x="466" y="288"/>
      <point x="454" y="302" type="curve" smooth="yes"/>
      <point x="327" y="455" type="line" smooth="yes"/>
      <point x="318" y="465"/>
      <point x="310" y="469"/>
      <point x="300" y="469" type="curve" smooth="yes"/>
    </contour>
    <contour>
      <point x="82" y="469"/>
      <point x="42" y="443"/>
      <point x="42" y="420" type="curve" smooth="yes"/>
      <point x="42" y="413"/>
      <point x="45" y="406"/>
      <point x="51" y="398" type="curve" smooth="yes"/>
      <point x="161" y="258" type="line"/>
      <point x="51" y="118" type="line" smooth="yes"/>
      <point x="45" y="110"/>
      <point x="42" y="103"/>
      <point x="42" y="95" type="curve" smooth="yes"/>
      <point x="42" y="75"/>
      <point x="79" y="46"/>
      <point x="101" y="46" type="curve" smooth="yes"/>
      <point x="110" y="46"/>
      <point x="119" y="51"/>
      <point x="128" y="61" type="curve" smooth="yes"/>
      <point x="255" y="214" type="line" smooth="yes"/>
      <point x="267" y="228"/>
      <point x="271" y="240"/>
      <point x="271" y="258" type="curve" smooth="yes"/>
      <point x="271" y="276"/>
      <point x="267" y="288"/>
      <point x="255" y="302" type="curve" smooth="yes"/>
      <point x="128" y="455" type="line" smooth="yes"/>
      <point x="119" y="465"/>
      <point x="111" y="469"/>
      <point x="101" y="469" type="curve" smooth="yes"/>
    </contour>
  </outline>
</glyph>
<glyph name="oslash" format="1">
  <advance width="569"/>
  <unicode hex="00F8"/>
  <outline>
    <contour>
      <point x="126" y="531"/>
      <point x="42" y="436"/>
      <point x="42" y="262" type="curve" smooth="yes"/>
      <point x="42" y="192"/>
      <point x="55" y="135"/>
      <point x="82" y="91" type="curve"/>
      <point x="49" y="53" type="line" smooth="yes"/>
      <point x="42" y="45"/>
      <point x="39" y="39"/>
      <point x="39" y="32" type="curve" smooth="yes"/>
      <point x="39" y="13"/>
      <point x="71" y="-12"/>
      <point x="87" y="-12" type="curve" smooth="yes"/>
      <point x="94" y="-12"/>
      <point x="101" y="-8"/>
      <point x="108" y="1" type="curve" smooth="yes"/>
      <point x="136" y="33" type="line"/>
      <point x="174" y="6"/>
      <point x="224" y="-8"/>
      <point x="285" y="-8" type="curve" smooth="yes"/>
      <point x="444" y="-8"/>
      <point x="527" y="88"/>
      <point x="527" y="262" type="curve" smooth="yes"/>
      <point x="527" y="334"/>
      <point x="512" y="393"/>
      <point x="484" y="437" type="curve"/>
      <point x="520" y="479" type="line" smooth="yes"/>
      <point x="526" y="486"/>
      <point x="530" y="493"/>
      <point x="530" y="500" type="curve" smooth="yes"/>
      <point x="530" y="517"/>
      <point x="498" y="544"/>
      <point x="482" y="544" type="curve" smooth="yes"/>
      <point x="475" y="544"/>
      <point x="467" y="539"/>
      <point x="460" y="531" type="curve" smooth="yes"/>
      <point x="428" y="494" type="line"/>
      <point x="391" y="518"/>
      <point x="343" y="531"/>
      <point x="285" y="531" type="curve" smooth="yes"/>
    </contour>
    <contour>
      <point x="376" y="295"/>
      <point x="377" y="279"/>
      <point x="377" y="262" type="curve" smooth="yes"/>
      <point x="377" y="162"/>
      <point x="349" y="109"/>
      <point x="285" y="109" type="curve" smooth="yes"/>
      <point x="259" y="109"/>
      <point x="239" y="118"/>
      <point x="224" y="135" type="curve"/>
      <point x="374" y="310" type="line"/>
    </contour>
    <contour>
      <point x="308" y="414"/>
      <point x="327" y="407"/>
      <point x="341" y="393" type="curve"/>
      <point x="194" y="221" type="line"/>
      <point x="193" y="234"/>
      <point x="192" y="247"/>
      <point x="192" y="262" type="curve" smooth="yes"/>
      <point x="192" y="362"/>
      <point x="221" y="414"/>
      <point x="285" y="414" type="curve" smooth="yes"/>
    </contour>
    <contour>
      <point x="285" y="523" type="move" name="top"/>
    </contour>
  </outline>
</glyph>
<glyph name="kgreenlandic" format="1">
  <advance width="521"/>
  <unicode hex="0138"/>
  <outline>
    <contour>
      <point x="126" y="525" type="line" smooth="yes"/>
      <point x="84" y="525"/>
      <point x="66" y="514"/>
      <point x="66" y="493" type="curve" smooth="yes"/>
      <point x="66" y="30" type="line" smooth="yes"/>
      <point x="66" y="9"/>
      <point x="84" y="-2"/>
      <point x="126" y="-2" type="curve" smooth="yes"/>
      <point x="154" y="-2" type="line" smooth="yes"/>
      <point x="196" y="-2"/>
      <point x="214" y="9"/>
      <point x="214" y="30" type="curve" smooth="yes"/>
      <point x="214" y="246" type="line"/>
      <point x="218" y="247" type="line"/>
      <point x="357" y="17" type="line" smooth="yes"/>
      <point x="366" y="2"/>
      <point x="388" y="-2"/>
      <point x="417" y="-2" type="curve" smooth="yes"/>
      <point x="459" y="-2" type="line" smooth="yes"/>
      <point x="498" y="-2"/>
      <point x="516" y="4"/>
      <point x="516" y="13" type="curve" smooth="yes"/>
      <point x="516" y="19"/>
      <point x="513" y="25"/>
      <point x="508" y="34" type="curve" smooth="yes"/>
      <point x="345" y="292" type="line"/>
      <point x="484" y="490" type="line" smooth="yes"/>
      <point x="490" y="498"/>
      <point x="493" y="505"/>
      <point x="493" y="510" type="curve" smooth="yes"/>
      <point x="493" y="519"/>
      <point x="475" y="525"/>
      <point x="437" y="525" type="curve" smooth="yes"/>
      <point x="400" y="525" type="line" smooth="yes"/>
      <point x="371" y="525"/>
      <point x="351" y="523"/>
      <point x="339" y="506" type="curve" smooth="yes"/>
      <point x="218" y="325" type="line"/>
      <point x="214" y="326" type="line"/>
      <point x="214" y="493" type="line" smooth="yes"/>
      <point x="214" y="514"/>
      <point x="196" y="525"/>
      <point x="154" y="525" type="curve" smooth="yes"/>
    </contour>
  </outline>
</glyph>
<glyph name="oe" format="1">
  <advance width="871"/>
  <unicode hex="0153"/>
  <outline>
    <contour>
      <point x="451" y="470" type="line"/>
      <point x="411" y="507"/>
      <point x="355" y="531"/>
      <point x="284" y="531" type="curve" smooth="yes"/>
      <point x="125" y="531"/>
      <point x="41" y="436"/>
      <point x="41" y="262" type="curve" smooth="yes"/>
      <point x="41" y="88"/>
      <point x="125" y="-8"/>
      <point x="284" y="-8" type="curve" smooth="yes"/>
      <point x="357" y="-8"/>
      <point x="413" y="16"/>
      <point x="454" y="54" type="curve"/>
    </contour>
    <contour>
      <point x="348" y="414"/>
      <point x="376" y="362"/>
      <point x="376" y="262" type="curve" smooth="yes"/>
      <point x="376" y="162"/>
      <point x="348" y="109"/>
      <point x="284" y="109" type="curve" smooth="yes"/>
      <point x="220" y="109"/>
      <point x="191" y="162"/>
      <point x="191" y="262" type="curve" smooth="yes"/>
      <point x="191" y="362"/>
      <point x="220" y="414"/>
      <point x="284" y="414" type="curve" smooth="yes"/>
    </contour>
    <component base="e" xOffset="335"/>
    <contour>
      <point x="436" y="523" type="move" name="top"/>
    </contour>
  </outline>
</glyph>
<glyph name="uni018F" format="1">
  <advance width="672"/>
  <unicode hex="018F"/>
  <outline>
    <contour>
      <point x="477" y="-1"/>
      <point x="597" y="93"/>
      <point x="597" y="332" type="curve" smooth="yes"/>
      <point x="597" y="559"/>
      <point x="505" y="708"/>
      <point x="296" y="708" type="curve" smooth="yes"/>
      <point x="222" y="708"/>
      <point x="56" y="680"/>
      <point x="56" y="616" type="curve" smooth="yes"/>
      <point x="56" y="596"/>
      <point x="86" y="540"/>
      <point x="108" y="540" type="curve" smooth="yes"/>
      <point x="128" y="540"/>
      <point x="196" y="591"/>
      <point x="289" y="591" type="curve" smooth="yes"/>
      <point x="378" y="591"/>
      <point x="433" y="544"/>
      <point x="444" y="376" type="curve"/>
      <point x="89" y="376" type="line" smooth="yes"/>
      <point x="76" y="376"/>
      <point x="38" y="334"/>
      <point x="38" y="317" type="curve" smooth="yes"/>
      <point x="38" y="148"/>
      <point x="112" y="-1"/>
      <point x="304" y="-1" type="curve" smooth="yes"/>
    </contour>
    <contour>
      <point x="219" y="116"/>
      <point x="182" y="183"/>
      <point x="182" y="277" type="curve"/>
      <point x="444" y="277" type="line"/>
      <point x="427" y="152"/>
      <point x="371" y="116"/>
      <point x="304" y="116" type="curve" smooth="yes"/>
    </contour>
  </outline>
</glyph>
<glyph name="uni01C7" format="1">
  <advance width="718"/>
  <unicode hex="01C7"/>
  <outline>
    <contour>
      <point x="129" y="702" type="line" smooth="yes"/>
      <point x="87" y="702"/>
      <point x="69" y="691"/>
      <point x="69" y="670" type="curve" smooth="yes"/>
      <point x="69" y="40" type="line" smooth="yes"/>
      <point x="69" y="12"/>
      <point x="81" y="0"/>
      <point x="109" y="0" type="curve" smooth="yes"/>
      <point x="376" y="0" type="line" smooth="yes"/>
      <point x="397" y="0"/>
      <point x="406" y="15"/>
      <point x="406" y="50" type="curve" smooth="yes"/>
      <point x="406" y="81" type="line" smooth="yes"/>
      <point x="406" y="116"/>
      <point x="397" y="131"/>
      <point x="376" y="131" type="curve" smooth="yes"/>
      <point x="223" y="131" type="line"/>
      <point x="223" y="670" type="line" smooth="yes"/>
      <point x="223" y="691"/>
      <point x="205" y="702"/>
      <point x="163" y="702" type="curve" smooth="yes"/>
    </contour>
    <contour>
      <point x="565" y="703" type="line" smooth="yes"/>
      <point x="523" y="703"/>
      <point x="505" y="691"/>
      <point x="505" y="670" type="curve" smooth="yes"/>
      <point x="505" y="54" type="line" smooth="yes"/>
      <point x="505" y="-19"/>
      <point x="481" y="-50"/>
      <point x="421" y="-50" type="curve" smooth="yes"/>
      <point x="389" y="-50"/>
      <point x="375" y="-42"/>
      <point x="365" y="-42" type="curve"/>
      <point x="334" y="-45"/>
      <point x="324" y="-117"/>
      <point x="324" y="-135" type="curve" smooth="yes"/>
      <point x="324" y="-178"/>
      <point x="424" y="-181"/>
      <point x="448" y="-181" type="curve" smooth="yes"/>
      <point x="597" y="-181"/>
      <point x="660" y="-85"/>
      <point x="660" y="42" type="curve" smooth="yes"/>
      <point x="660" y="670" type="line" smooth="yes"/>
      <point x="660" y="691"/>
      <point x="642" y="703"/>
      <point x="600" y="703" type="curve" smooth="yes"/>
    </contour>
  </outline>
</glyph>
<glyph name="dotlessj" format="1">
  <advance width="276"/>
  <unicode hex="0237"/>
  <outline>
    <contour>
      <point x="130" y="525" type="line" smooth="yes"/>
      <point x="88" y="525"/>
      <point x="70" y="514"/>
      <point x="70" y="493" type="curve" smooth="yes"/>
      <point x="70" y="-52" type="line" smooth="yes"/>
      <point x="70" y="-82"/>
      <point x="60" y="-95"/>
      <point x="34" y="-95" type="curve" smooth="yes"/>
      <point x="23" y="-95"/>
      <point x="10" y="-91"/>
      <point x="4" y="-91" type="curve" smooth="yes"/>
      <point x="-17" y="-91"/>
      <point x="-32" y="-137"/>
      <point x="-32" y="-160" type="curve" smooth="yes"/>
      <point x="-32" y="-199"/>
      <point x="-7" y="-212"/>
      <point x="72" y="-212" type="curve" smooth="yes"/>
      <point x="155" y="-212"/>
      <point x="218" y="-159"/>
      <point x="218" y="-50" type="curve" smooth="yes"/>
      <point x="218" y="493" type="line" smooth="yes"/>
      <point x="218" y="514"/>
      <point x="200" y="525"/>
      <point x="158" y="525" type="curve" smooth="yes"/>
    </contour>
    <contour>
      <point x="144" y="523" type="move" name="top"/>
    </contour>
  </outline>
</glyph>
<glyph name="dotaccent" format="1">
  <advance width="320"/>
  <unicode hex="02D9"/>
  <outline>
    <contour>
      <point x="120" y="702"/>
      <point x="102" y="691"/>
      <point x="102" y="670" type="curve" smooth="yes"/>
      <point x="102" y="610" type="line" smooth="yes"/>
      <point x="102" y="589"/>
      <point x="120" y="578"/>
      <point x="162" y="578" type="curve" smooth="yes"/>
      <point x="204" y="578"/>
      <point x="222" y="589"/>
      <point x="222" y="610" type="curve" smooth="yes"/>
      <point x="222" y="670" type="line" smooth="yes"/>
      <point x="222" y="691"/>
      <point x="204" y="702"/>
      <point x="162" y="702" type="curve" smooth="yes"/>
    </contour>
    <contour>
      <point x="164" y="700" type="move" name="top"/>
    </contour>
    <contour>
      <point x="162" y="523" type="move" name="_top"/>
    </contour>
  </outline>
</glyph>
<glyph name="uni0307" format="1">
  <advance width="0"/>
  <unicode hex="0307"/>
  <outline>
    <component base="dotaccent" xOffset="-161"/>
    <contour>
      <point x="2" y="700" type="move" name="top"/>
    </contour>
    <contour>
      <point x="1" y="523" type="move" name="_top"/>
    </contour>
  </outline>
</glyph>
<glyph name="hookabovecomb" format="1">
  <advance width="300"/>
  <unicode hex="0309"/>
  <outline>
    <contour>
      <point x="37" y="638"/>
      <point x="-30" y="610"/>
      <point x="-30" y="593" type="curve" smooth="yes"/>
      <point x="-30" y="585"/>
      <point x="0" y="570"/>
      <point x="24" y="570" type="curve" smooth="yes"/>
      <point x="42" y="570"/>
      <point x="124" y="619"/>
      <point x="124" y="672" type="curve" smooth="yes"/>
      <point x="124" y="721"/>
      <point x="85" y="751"/>
      <point x="13" y="751" type="curve" smooth="yes"/>
      <point x="-22" y="751"/>
      <point x="-67" y="733"/>
      <point x="-67" y="720" type="curve" smooth="yes"/>
      <point x="-67" y="705"/>
      <point x="-45" y="678"/>
      <point x="-37" y="678" type="curve" smooth="yes"/>
      <point x="-28" y="678"/>
      <point x="-17" y="690"/>
      <point x="5" y="690" type="curve" smooth="yes"/>
      <point x="21" y="690"/>
      <point x="37" y="682"/>
      <point x="37" y="668" type="curve" smooth="yes"/>
    </contour>
    <contour>
      <point x="1" y="700" type="move" name="top"/>
    </contour>
    <contour>
      <point x="0" y="523" type="move" name="_top"/>
    </contour>
  </outline>
</glyph>
<glyph name="uni0326" format="1">
  <advance width="353"/>
  <unicode hex="0326"/>
  <outline>
    <contour>
      <point x="184" y="-51" type="line" smooth="yes"/>
      <point x="142" y="-51"/>
      <point x="124" y="-68"/>
      <point x="124" y="-95" type="curve" smooth="yes"/>
      <point x="124" y="-175"/>
      <point x="100" y="-200"/>
      <point x="100" y="-218" type="curve" smooth="yes"/>
      <point x="100" y="-234"/>
      <point x="127" y="-240"/>
      <point x="145" y="-240" type="curve" smooth="yes"/>
      <point x="180" y="-240"/>
      <point x="253" y="-162"/>
      <point x="253" y="-95" type="curve" smooth="yes"/>
      <point x="253" y="-70"/>
      <point x="238" y="-51"/>
      <point x="203" y="-51" type="curve" smooth="yes"/>
    </contour>
    <contour>
      <point x="191" y="0" type="move" name="_bottom"/>
    </contour>
    <contour>
      <point x="191" y="-203" type="move" name="bottom"/>
    </contour>
  </outline>
</glyph>
<glyph name="pi" format="1">
  <advance width="616"/>
  <unicode hex="03C0"/>
  <outline>
    <contour>
      <point x="162" y="523" type="line" smooth="yes"/>
      <point x="80" y="523"/>
      <point x="5" y="514"/>
      <point x="5" y="473" type="curve" smooth="yes"/>
      <point x="5" y="470"/>
      <point x="6" y="394"/>
      <point x="41" y="394" type="curve" smooth="yes"/>
      <point x="50" y="394"/>
      <point x="73" y="406"/>
      <point x="130" y="406" type="curve"/>
      <point x="124" y="284"/>
      <point x="94" y="129"/>
      <point x="60" y="31" type="curve" smooth="yes"/>
      <point x="59" y="27"/>
      <point x="58" y="24"/>
      <point x="58" y="21" type="curve" smooth="yes"/>
      <point x="58" y="8"/>
      <point x="82" y="-2"/>
      <point x="121" y="-2" type="curve" smooth="yes"/>
      <point x="134" y="-2" type="line" smooth="yes"/>
      <point x="169" y="-2"/>
      <point x="196" y="7"/>
      <point x="204" y="27" type="curve" smooth="yes"/>
      <point x="239" y="113"/>
      <point x="269" y="282"/>
      <point x="275" y="406" type="curve"/>
      <point x="368" y="406" type="line"/>
      <point x="368" y="119" type="line" smooth="yes"/>
      <point x="368" y="74"/>
      <point x="373" y="-2"/>
      <point x="434" y="-2" type="curve" smooth="yes"/>
      <point x="461" y="-2" type="line" smooth="yes"/>
      <point x="503" y="-2"/>
      <point x="522" y="10"/>
      <point x="522" y="28" type="curve" smooth="yes"/>
      <point x="522" y="33"/>
      <point x="513" y="70"/>
      <point x="513" y="154" type="curve" smooth="yes"/>
      <point x="513" y="406" type="line"/>
      <point x="560" y="406" type="line" smooth="yes"/>
      <point x="583" y="406"/>
      <point x="595" y="417"/>
      <point x="597" y="439" type="curve" smooth="yes"/>
      <point x="601" y="489"/>
      <point x="601" y="490"/>
      <point x="601" y="492" type="curve" smooth="yes"/>
      <point x="601" y="512"/>
      <point x="589" y="523"/>
      <point x="567" y="523" type="curve" smooth="yes"/>
    </contour>
  </outline>
</glyph>
<glyph name="dagger" format="1">
  <advance width="535"/>
  <unicode hex="2020"/>
  <outline>
    <contour>
      <point x="260" y="702" type="line" smooth="yes"/>
      <point x="225" y="702"/>
      <point x="210" y="691"/>
      <point x="210" y="670" type="curve" smooth="yes"/>
      <point x="210" y="517" type="line"/>
      <point x="76" y="517" type="line" smooth="yes"/>
      <point x="55" y="517"/>
      <point x="46" y="502"/>
      <point x="46" y="467" type="curve" smooth="yes"/>
      <point x="46" y="460" type="line" smooth="yes"/>
      <point x="46" y="425"/>
      <point x="55" y="410"/>
      <point x="76" y="410" type="curve" smooth="yes"/>
      <point x="210" y="410" type="line"/>
      <point x="210" y="-108" type="line" smooth="yes"/>
      <point x="210" y="-129"/>
      <point x="225" y="-140"/>
      <point x="260" y="-140" type="curve" smooth="yes"/>
      <point x="275" y="-140" type="line" smooth="yes"/>
      <point x="310" y="-140"/>
      <point x="325" y="-129"/>
      <point x="325" y="-108" type="curve" smooth="yes"/>
      <point x="325" y="410" type="line"/>
      <point x="459" y="410" type="line" smooth="yes"/>
      <point x="480" y="410"/>
      <point x="489" y="425"/>
      <point x="489" y="460" type="curve" smooth="yes"/>
      <point x="489" y="467" type="line" smooth="yes"/>
      <point x="489" y="502"/>
      <point x="480" y="517"/>
      <point x="459" y="517" type="curve" smooth="yes"/>
      <point x="325" y="517" type="line"/>
      <point x="325" y="670" type="line" smooth="yes"/>
      <point x="325" y="691"/>
      <point x="310" y="702"/>
      <point x="275" y="702" type="curve" smooth="yes"/>
    </contour>
  </outline>
</glyph>
<glyph name="ellipsis" format="1">
  <advance width="617"/>
  <unicode hex="2026"/>
  <outline>
    <contour>
      <point x="504" y="154" type="line" smooth="yes"/>
      <point x="462" y="154"/>
      <point x="444" y="143"/>
      <point x="444" y="122" type="curve" smooth="yes"/>
      <point x="444" y="30" type="line" smooth="yes"/>
      <point x="444" y="9"/>
      <point x="462" y="-2"/>
      <point x="504" y="-2" type="curve" smooth="yes"/>
      <point x="536" y="-2" type="line" smooth="yes"/>
      <point x="578" y="-2"/>
      <point x="596" y="9"/>
      <point x="596" y="30" type="curve" smooth="yes"/>
      <point x="596" y="122" type="line" smooth="yes"/>
      <point x="596" y="143"/>
      <point x="578" y="154"/>
      <point x="536" y="154" type="curve" smooth="yes"/>
    </contour>
    <contour>
      <point x="84" y="154" type="line" smooth="yes"/>
      <point x="42" y="154"/>
      <point x="24" y="143"/>
      <point x="24" y="122" type="curve" smooth="yes"/>
      <point x="24" y="30" type="line" smooth="yes"/>
      <point x="24" y="9"/>
      <point x="42" y="-2"/>
      <point x="84" y="-2" type="curve" smooth="yes"/>
      <point x="116" y="-2" type="line" smooth="yes"/>
      <point x="158" y="-2"/>
      <point x="176" y="9"/>
      <point x="176" y="30" type="curve" smooth="yes"/>
      <point x="176" y="122" type="line" smooth="yes"/>
      <point x="176" y="143"/>
      <point x="158" y="154"/>
      <point x="116" y="154" type="curve" smooth="yes"/>
    </contour>
    <contour>
      <point x="294" y="154" type="line" smooth="yes"/>
      <point x="252" y="154"/>
      <point x="234" y="143"/>
      <point x="234" y="122" type="curve" smooth="yes"/>
      <point x="234" y="30" type="line" smooth="yes"/>
      <point x="234" y="9"/>
      <point x="252" y="-2"/>
      <point x="294" y="-2" type="curve" smooth="yes"/>
      <point x="326" y="-2" type="line" smooth="yes"/>
      <point x="368" y="-2"/>
      <point x="386" y="9"/>
      <point x="386" y="30" type="curve" smooth="yes"/>
      <point x="386" y="122" type="line" smooth="yes"/>
      <point x="386" y="143"/>
      <point x="368" y="154"/>
      <point x="326" y="154" type="curve" smooth="yes"/>
    </contour>
  </outline>
</glyph>
<glyph name="guilsinglright" format="1">
  <advance width="300"/>
  <unicode hex="203A"/>
  <outline>
    <contour>
      <point x="80" y="469"/>
      <point x="40" y="443"/>
      <point x="40" y="420" type="curve" smooth="yes"/>
      <point x="40" y="413"/>
      <point x="43" y="406"/>
      <point x="49" y="398" type="curve" smooth="yes"/>
      <point x="159" y="258" type="line"/>
      <point x="49" y="118" type="line" smooth="yes"/>
      <point x="43" y="110"/>
      <point x="40" y="103"/>
      <point x="40" y="95" type="curve" smooth="yes"/>
      <point x="40" y="75"/>
      <point x="77" y="46"/>
      <point x="99" y="46" type="curve" smooth="yes"/>
      <point x="108" y="46"/>
      <point x="117" y="51"/>
      <point x="126" y="61" type="curve" smooth="yes"/>
      <point x="253" y="214" type="line" smooth="yes"/>
      <point x="265" y="228"/>
      <point x="269" y="240"/>
      <point x="269" y="258" type="curve" smooth="yes"/>
      <point x="269" y="276"/>
      <point x="265" y="288"/>
      <point x="253" y="302" type="curve" smooth="yes"/>
      <point x="126" y="455" type="line" smooth="yes"/>
      <point x="117" y="465"/>
      <point x="109" y="469"/>
      <point x="99" y="469" type="curve" smooth="yes"/>
    </contour>
  </outline>
</glyph>
<glyph name="uni2153" format="1">
  <advance width="746"/>
  <unicode hex="2153"/>
  <outline>
    <contour>
      <point x="522" y="700" type="line" smooth="yes"/>
      <point x="502" y="700"/>
      <point x="487" y="692"/>
      <point x="477" y="674" type="curve" smooth="yes"/>
      <point x="118" y="26" type="line" smooth="yes"/>
      <point x="114" y="20"/>
      <point x="112" y="15"/>
      <point x="112" y="11" type="curve" smooth="yes"/>
      <point x="112" y="3"/>
      <point x="119" y="0"/>
      <point x="133" y="0" type="curve" smooth="yes"/>
      <point x="150" y="0" type="line" smooth="yes"/>
      <point x="170" y="0"/>
      <point x="184" y="7"/>
      <point x="195" y="26" type="curve" smooth="yes"/>
      <point x="554" y="674" type="line" smooth="yes"/>
      <point x="558" y="680"/>
      <point x="560" y="685"/>
      <point x="560" y="689" type="curve" smooth="yes"/>
      <point x="560" y="696"/>
      <point x="553" y="700"/>
      <point x="539" y="700" type="curve" smooth="yes"/>
    </contour>
    <contour>
      <point x="30" y="678" type="line" smooth="yes"/>
      <point x="20" y="676"/>
      <point x="15" y="670"/>
      <point x="15" y="661" type="curve" smooth="yes"/>
      <point x="15" y="645"/>
      <point x="19" y="611"/>
      <point x="34" y="611" type="curve"/>
      <point x="113" y="624" type="line"/>
      <point x="113" y="312" type="line" smooth="yes"/>
      <point x="113" y="300"/>
      <point x="124" y="293"/>
      <point x="148" y="293" type="curve"/>
      <point x="164" y="293" type="line" smooth="yes"/>
      <point x="188" y="293"/>
      <point x="199" y="300"/>
      <point x="199" y="312" type="curve" smooth="yes"/>
      <point x="199" y="690" type="line" smooth="yes"/>
      <point x="199" y="697"/>
      <point x="184" y="704"/>
      <point x="176" y="704" type="curve"/>
    </contour>
    <contour>
      <point x="509" y="414"/>
      <point x="453" y="400"/>
      <point x="453" y="371" type="curve" smooth="yes"/>
      <point x="453" y="355"/>
      <point x="471" y="326"/>
      <point x="483" y="326" type="curve" smooth="yes"/>
      <point x="493" y="326"/>
      <point x="507" y="345"/>
      <point x="552" y="345" type="curve" smooth="yes"/>
      <point x="584" y="345"/>
      <point x="600" y="326"/>
      <point x="600" y="297" type="curve" smooth="yes"/>
      <point x="600" y="268"/>
      <point x="577" y="248"/>
      <point x="539" y="248" type="curve" smooth="yes"/>
      <point x="528" y="248" type="line" smooth="yes"/>
      <point x="516" y="248"/>
      <point x="510" y="240"/>
      <point x="510" y="219" type="curve" smooth="yes"/>
      <point x="510" y="208" type="line" smooth="yes"/>
      <point x="510" y="188"/>
      <point x="516" y="179"/>
      <point x="528" y="179" type="curve" smooth="yes"/>
      <point x="544" y="179" type="line" smooth="yes"/>
      <point x="594" y="179"/>
      <point x="613" y="158"/>
      <point x="613" y="119" type="curve" smooth="yes"/>
      <point x="613" y="83"/>
      <point x="590" y="62"/>
      <point x="555" y="62" type="curve" smooth="yes"/>
      <point x="507" y="62"/>
      <point x="480" y="86"/>
      <point x="470" y="86" type="curve" smooth="yes"/>
      <point x="456" y="86"/>
      <point x="441" y="53"/>
      <point x="441" y="42" type="curve" smooth="yes"/>
      <point x="441" y="5"/>
      <point x="524" y="-7"/>
      <point x="568" y="-7" type="curve" smooth="yes"/>
      <point x="647" y="-7"/>
      <point x="701" y="40"/>
      <point x="701" y="118" type="curve" smooth="yes"/>
      <point x="701" y="166"/>
      <point x="679" y="204"/>
      <point x="633" y="222" type="curve"/>
      <point x="633" y="226" type="line"/>
      <point x="667" y="241"/>
      <point x="688" y="271"/>
      <point x="688" y="311" type="curve" smooth="yes"/>
      <point x="688" y="374"/>
      <point x="641" y="414"/>
      <point x="567" y="414" type="curve" smooth="yes"/>
    </contour>
  </outline>
</glyph>
<glyph name="oneeighth" format="1">
  <advance width="746"/>
  <unicode hex="215B"/>
  <outline>
    <contour>
      <point x="522" y="700" type="line" smooth="yes"/>
      <point x="502" y="700"/>
      <point x="487" y="692"/>
      <point x="477" y="674" type="curve" smooth="yes"/>
      <point x="118" y="26" type="line" smooth="yes"/>
      <point x="114" y="20"/>
      <point x="112" y="15"/>
      <point x="112" y="11" type="curve" smooth="yes"/>
      <point x="112" y="3"/>
      <point x="119" y="0"/>
      <point x="133" y="0" type="curve" smooth="yes"/>
      <point x="150" y="0" type="line" smooth="yes"/>
      <point x="170" y="0"/>
      <point x="184" y="7"/>
      <point x="195" y="26" type="curve" smooth="yes"/>
      <point x="554" y="674" type="line" smooth="yes"/>
      <point x="558" y="680"/>
      <point x="560" y="685"/>
      <point x="560" y="689" type="curve" smooth="yes"/>
      <point x="560" y="696"/>
      <point x="553" y="700"/>
      <point x="539" y="700" type="curve" smooth="yes"/>
    </contour>
    <contour>
      <point x="30" y="678" type="line" smooth="yes"/>
      <point x="20" y="676"/>
      <point x="15" y="670"/>
      <point x="15" y="661" type="curve" smooth="yes"/>
      <point x="15" y="645"/>
      <point x="19" y="611"/>
      <point x="34" y="611" type="curve"/>
      <point x="113" y="624" type="line"/>
      <point x="113" y="312" type="line" smooth="yes"/>
      <point x="113" y="300"/>
      <point x="124" y="293"/>
      <point x="148" y="293" type="curve"/>
      <point x="164" y="293" type="line" smooth="yes"/>
      <point x="188" y="293"/>
      <point x="199" y="300"/>
      <point x="199" y="312" type="curve" smooth="yes"/>
      <point x="199" y="690" type="line" smooth="yes"/>
      <point x="199" y="697"/>
      <point x="184" y="704"/>
      <point x="176" y="704" type="curve"/>
    </contour>
    <component base="eight" xOffset="405" xScale="0.59" yScale="0.59"/>
  </outline>
</glyph>
<glyph name="arrowdown" format="1">
  <advance width="529"/>
  <unicode hex="2193"/>
  <outline>
    <contour>
      <point x="256" y="711" type="line" smooth="yes"/>
      <point x="225" y="711"/>
      <point x="212" y="700"/>
      <point x="212" y="679" type="curve" smooth="yes"/>
      <point x="212" y="185" type="line"/>
      <point x="23" y="377" type="line" smooth="yes"/>
      <point x="17" y="383"/>
      <point x="12" y="387"/>
      <point x="9" y="387" type="curve" smooth="yes"/>
      <point x="4" y="387"/>
      <point x="2" y="380"/>
      <point x="2" y="368" type="curve" smooth="yes"/>
      <point x="2" y="282" type="line" smooth="yes"/>
      <point x="2" y="261"/>
      <point x="8" y="246"/>
      <point x="23" y="231" type="curve"/>
      <point x="248" y="5" type="line" smooth="yes"/>
      <point x="253" y="0"/>
      <point x="258" y="-2"/>
      <point x="266" y="-2" type="curve" smooth="yes"/>
      <point x="274" y="-2"/>
      <point x="279" y="0"/>
      <point x="284" y="5" type="curve" smooth="yes"/>
      <point x="510" y="232" type="line" smooth="yes"/>
      <point x="525" y="247"/>
      <point x="531" y="262"/>
      <point x="531" y="283" type="curve" smooth="yes"/>
      <point x="531" y="369" type="line" smooth="yes"/>
      <point x="531" y="381"/>
      <point x="529" y="388"/>
      <point x="524" y="388" type="curve" smooth="yes"/>
      <point x="521" y="388"/>
      <point x="516" y="384"/>
      <point x="510" y="378" type="curve" smooth="yes"/>
      <point x="319" y="184" type="line"/>
      <point x="319" y="679" type="line" smooth="yes"/>
      <point x="319" y="700"/>
      <point x="306" y="711"/>
      <point x="275" y="711" type="curve" smooth="yes"/>
    </contour>
  </outline>
</glyph>
<glyph name="minus" format="1">
  <advance width="560"/>
  <unicode hex="2212"/>
  <outline>
    <contour>
      <point x="58" y="279" type="line" smooth="yes"/>
      <point x="37" y="279"/>
      <point x="28" y="264"/>
      <point x="28" y="229" type="curve" smooth="yes"/>
      <point x="28" y="222" type="line" smooth="yes"/>
      <point x="28" y="187"/>
      <point x="37" y="172"/>
      <point x="58" y="172" type="curve"/>
      <point x="502" y="172" type="line" smooth="yes"/>
      <point x="523" y="172"/>
      <point x="532" y="187"/>
      <point x="532" y="222" type="curve" smooth="yes"/>
      <point x="532" y="229" type="line" smooth="yes"/>
      <point x="532" y="264"/>
      <point x="523" y="279"/>
      <point x="502" y="279" type="curve" smooth="yes"/>
    </contour>
  </outline>
</glyph>
<glyph name="uni2219" format="1">
  <advance width="282"/>
  <unicode hex="2219"/>
  <outline>
    <contour>
      <point x="102" y="429"/>
      <point x="71" y="398"/>
      <point x="71" y="359" type="curve" smooth="yes"/>
      <point x="71" y="320"/>
      <point x="102" y="289"/>
      <point x="141" y="289" type="curve" smooth="yes"/>
      <point x="180" y="289"/>
      <point x="211" y="320"/>
      <point x="211" y="359" type="curve" smooth="yes"/>
      <point x="211" y="398"/>
      <point x="180" y="429"/>
      <point x="141" y="429" type="curve" smooth="yes"/>
    </contour>
  </outline>
</glyph>
<glyph name="infinity" format="1">
  <advance width="788"/>
  <unicode hex="221E"/>
  <outline>
    <contour>
      <point x="510" y="448"/>
      <point x="457" y="420"/>
      <point x="392" y="352" type="curve"/>
      <point x="348" y="403"/>
      <point x="295" y="448"/>
      <point x="220" y="448" type="curve" smooth="yes"/>
      <point x="120" y="448"/>
      <point x="47" y="380"/>
      <point x="47" y="282" type="curve" smooth="yes"/>
      <point x="47" y="184"/>
      <point x="120" y="111"/>
      <point x="212" y="111" type="curve" smooth="yes"/>
      <point x="274" y="111"/>
      <point x="322" y="136"/>
      <point x="392" y="209" type="curve"/>
      <point x="440" y="157"/>
      <point x="497" y="111"/>
      <point x="577" y="111" type="curve" smooth="yes"/>
      <point x="669" y="111"/>
      <point x="742" y="184"/>
      <point x="742" y="282" type="curve" smooth="yes"/>
      <point x="742" y="380"/>
      <point x="669" y="448"/>
      <point x="569" y="448" type="curve" smooth="yes"/>
    </contour>
    <contour>
      <point x="262" y="337"/>
      <point x="293" y="311"/>
      <point x="325" y="276" type="curve"/>
      <point x="287" y="241"/>
      <point x="256" y="225"/>
      <point x="230" y="225" type="curve" smooth="yes"/>
      <point x="198" y="225"/>
      <point x="174" y="249"/>
      <point x="174" y="282" type="curve" smooth="yes"/>
      <point x="174" y="315"/>
      <point x="194" y="337"/>
      <point x="225" y="337" type="curve" smooth="yes"/>
    </contour>
    <contour>
      <point x="594" y="337"/>
      <point x="615" y="315"/>
      <point x="615" y="282" type="curve" smooth="yes"/>
      <point x="615" y="249"/>
      <point x="590" y="225"/>
      <point x="559" y="225" type="curve" smooth="yes"/>
      <point x="523" y="225"/>
      <point x="494" y="247"/>
      <point x="466" y="278" type="curve"/>
      <point x="502" y="321"/>
      <point x="529" y="337"/>
      <point x="564" y="337" type="curve" smooth="yes"/>
    </contour>
  </outline>
</glyph>
<glyph name="uniFB01" format="1">
  <advance width="563"/>
  <unicode hex="FB01"/>
  <outline>
    <contour>
      <point x="117" y="760"/>
      <point x="65" y="709"/>
      <point x="65" y="598" type="curve" smooth="yes"/>
      <point x="65" y="523" type="line"/>
      <point x="47" y="523" type="line" smooth="yes"/>
      <point x="26" y="523"/>
      <point x="17" y="508"/>
      <point x="17" y="473" type="curve" smooth="yes"/>
      <point x="17" y="456" type="line" smooth="yes"/>
      <point x="17" y="421"/>
      <point x="26" y="406"/>
      <point x="47" y="406" type="curve" smooth="yes"/>
      <point x="65" y="406" type="line"/>
      <point x="65" y="30" type="line" smooth="yes"/>
      <point x="65" y="9"/>
      <point x="83" y="-2"/>
      <point x="125" y="-2" type="curve" smooth="yes"/>
      <point x="153" y="-2" type="line" smooth="yes"/>
      <point x="195" y="-2"/>
      <point x="213" y="9"/>
      <point x="213" y="30" type="curve" smooth="yes"/>
      <point x="213" y="406" type="line"/>
      <point x="263" y="406" type="line" smooth="yes"/>
      <point x="284" y="406"/>
      <point x="293" y="421"/>
      <point x="293" y="456" type="curve" smooth="yes"/>
      <point x="293" y="473" type="line" smooth="yes"/>
      <point x="293" y="508"/>
      <point x="284" y="523"/>
      <point x="263" y="523" type="curve" smooth="yes"/>
      <point x="213" y="523" type="line"/>
      <point x="213" y="600" type="line" smooth="yes"/>
      <point x="213" y="630"/>
      <point x="223" y="643"/>
      <point x="249" y="643" type="curve" smooth="yes"/>
      <point x="259" y="643"/>
      <point x="273" y="639"/>
      <point x="280" y="639" type="curve" smooth="yes"/>
      <point x="300" y="639"/>
      <point x="311" y="703"/>
      <point x="311" y="711" type="curve" smooth="yes"/>
      <point x="311" y="757"/>
      <point x="243" y="760"/>
      <point x="211" y="760" type="curve" smooth="yes"/>
    </contour>
    <contour>
      <point x="417" y="525" type="line" smooth="yes"/>
      <point x="375" y="525"/>
      <point x="357" y="514"/>
      <point x="357" y="493" type="curve" smooth="yes"/>
      <point x="357" y="30" type="line" smooth="yes"/>
      <point x="357" y="9"/>
      <point x="375" y="-2"/>
      <point x="417" y="-2" type="curve" smooth="yes"/>
      <point x="445" y="-2" type="line" smooth="yes"/>
      <point x="487" y="-2"/>
      <point x="505" y="9"/>
      <point x="505" y="30" type="curve" smooth="yes"/>
      <point x="505" y="493" type="line" smooth="yes"/>
      <point x="505" y="514"/>
      <point x="487" y="525"/>
      <point x="445" y="525" type="curve" smooth="yes"/>
    </contour>
    <contour>
      <point x="417" y="754" type="line" smooth="yes"/>
      <point x="375" y="754"/>
      <point x="357" y="743"/>
      <point x="357" y="722" type="curve" smooth="yes"/>
      <point x="357" y="641" type="line" smooth="yes"/>
      <point x="357" y="620"/>
      <point x="375" y="609"/>
      <point x="417" y="609" type="curve"/>
      <point x="445" y="609" type="line" smooth="yes"/>
      <point x="487" y="609"/>
      <point x="505" y="620"/>
      <point x="505" y="641" type="curve" smooth="yes"/>
      <point x="505" y="722" type="line" smooth="yes"/>
      <point x="505" y="743"/>
      <point x="487" y="754"/>
      <point x="445" y="754" type="curve" smooth="yes"/>
    </contour>
  </outline>
</glyph>
<glyph name="uniFB02" format="1">
  <advance width="591"/>
  <unicode hex="FB02"/>
  <outline>
    <contour>
      <point x="117" y="760"/>
      <point x="65" y="709"/>
      <point x="65" y="598" type="curve" smooth="yes"/>
      <point x="65" y="523" type="line"/>
      <point x="47" y="523" type="line" smooth="yes"/>
      <point x="26" y="523"/>
      <point x="17" y="508"/>
      <point x="17" y="473" type="curve" smooth="yes"/>
      <point x="17" y="456" type="line" smooth="yes"/>
      <point x="17" y="421"/>
      <point x="26" y="406"/>
      <point x="47" y="406" type="curve" smooth="yes"/>
      <point x="65" y="406" type="line"/>
      <point x="65" y="30" type="line" smooth="yes"/>
      <point x="65" y="9"/>
      <point x="83" y="-2"/>
      <point x="125" y="-2" type="curve" smooth="yes"/>
      <point x="153" y="-2" type="line" smooth="yes"/>
      <point x="195" y="-2"/>
      <point x="213" y="9"/>
      <point x="213" y="30" type="curve" smooth="yes"/>
      <point x="213" y="406" type="line"/>
      <point x="263" y="406" type="line" smooth="yes"/>
      <point x="284" y="406"/>
      <point x="293" y="421"/>
      <point x="293" y="456" type="curve" smooth="yes"/>
      <point x="293" y="473" type="line" smooth="yes"/>
      <point x="293" y="508"/>
      <point x="284" y="523"/>
      <point x="263" y="523" type="curve" smooth="yes"/>
      <point x="213" y="523" type="line"/>
      <point x="213" y="600" type="line" smooth="yes"/>
      <point x="213" y="630"/>
      <point x="223" y="643"/>
      <point x="249" y="643" type="curve" smooth="yes"/>
      <point x="259" y="643"/>
      <point x="273" y="639"/>
      <point x="280" y="639" type="curve" smooth="yes"/>
      <point x="300" y="639"/>
      <point x="311" y="703"/>
      <point x="311" y="711" type="curve" smooth="yes"/>
      <point x="311" y="757"/>
      <point x="243" y="760"/>
      <point x="211" y="760" type="curve" smooth="yes"/>
    </contour>
    <contour>
      <point x="417" y="754" type="line" smooth="yes"/>
      <point x="375" y="754"/>
      <point x="357" y="743"/>
      <point x="357" y="722" type="curve" smooth="yes"/>
      <point x="357" y="154" type="line" smooth="yes"/>
      <point x="357" y="43"/>
      <point x="409" y="-8"/>
      <point x="503" y="-8" type="curve" smooth="yes"/>
      <point x="534" y="-8"/>
      <point x="599" y="-5"/>
      <point x="599" y="41" type="curve" smooth="yes"/>
      <point x="599" y="49"/>
      <point x="588" y="113"/>
      <point x="568" y="113" type="curve" smooth="yes"/>
      <point x="562" y="113"/>
      <point x="550" y="109"/>
      <point x="541" y="109" type="curve" smooth="yes"/>
      <point x="515" y="109"/>
      <point x="505" y="122"/>
      <point x="505" y="152" type="curve" smooth="yes"/>
      <point x="505" y="722" type="line" smooth="yes"/>
      <point x="505" y="743"/>
      <point x="487" y="754"/>
      <point x="445" y="754" type="curve" smooth="yes"/>
    </contour>
  </outline>
</glyph>
<glyph name="acute.alt" format="1">
  <advance width="320"/>
  <outline>
    <contour>
      <point x="139" y="700"/>
      <point x="110" y="694"/>
      <point x="99" y="673" type="curve" smooth="yes"/>
      <point x="74" y="606"/>
      <point x="64" y="585"/>
      <point x="64" y="576" type="curve" smooth="yes"/>
      <point x="64" y="565"/>
      <point x="69" y="561"/>
      <point x="85" y="561" type="curve" smooth="yes"/>
      <point x="120" y="561"/>
      <point x="132" y="568"/>
      <point x="140" y="576" type="curve" smooth="yes"/>
      <point x="201" y="650"/>
      <point x="214" y="666"/>
      <point x="214" y="676" type="curve" smooth="yes"/>
      <point x="214" y="695"/>
      <point x="200" y="700"/>
      <point x="174" y="700" type="curve" smooth="yes"/>
    </contour>
    <contour>
      <point x="107" y="700" type="move" name="top"/>
    </contour>
    <contour>
      <point x="105" y="565" type="move" name="_top"/>
    </contour>
  </outline>
</glyph>
<glyph name="breve.alt" format="1">
  <advance width="320"/>
  <outline>
    <contour>
      <point x="254" y="706"/>
      <point x="247" y="699"/>
      <point x="239" y="690" type="curve" smooth="yes"/>
      <point x="226" y="673"/>
      <point x="212" y="656"/>
      <point x="158" y="656" type="curve" smooth="yes"/>
      <point x="107" y="656"/>
      <point x="92" y="672"/>
      <point x="79" y="688" type="curve" smooth="yes"/>
      <point x="70" y="698"/>
      <point x="63" y="706"/>
      <point x="46" y="706" type="curve" smooth="yes"/>
      <point x="24" y="706"/>
      <point x="11" y="696"/>
      <point x="11" y="678" type="curve" smooth="yes"/>
      <point x="11" y="627"/>
      <point x="71" y="575"/>
      <point x="158" y="575" type="curve" smooth="yes"/>
      <point x="245" y="575"/>
      <point x="305" y="627"/>
      <point x="305" y="678" type="curve" smooth="yes"/>
      <point x="305" y="696"/>
      <point x="292" y="706"/>
      <point x="270" y="706" type="curve" smooth="yes"/>
    </contour>
    <contour>
      <point x="159" y="745" type="move" name="tilde"/>
    </contour>
    <contour>
      <point x="158" y="695" type="move" name="top"/>
    </contour>
    <contour>
      <point x="158" y="523" type="move" name="_top"/>
    </contour>
  </outline>
</glyph>
<glyph name="circumflex.alt" format="1">
  <advance width="320"/>
  <outline>
    <contour>
      <point x="151" y="718" type="line" smooth="yes"/>
      <point x="122" y="718"/>
      <point x="101" y="717"/>
      <point x="90" y="699" type="curve" smooth="yes"/>
      <point x="25" y="597" type="line" smooth="yes"/>
      <point x="21" y="591"/>
      <point x="19" y="586"/>
      <point x="19" y="582" type="curve" smooth="yes"/>
      <point x="19" y="575"/>
      <point x="25" y="572"/>
      <point x="39" y="572" type="curve"/>
      <point x="61" y="572" type="line" smooth="yes"/>
      <point x="90" y="572"/>
      <point x="113" y="576"/>
      <point x="128" y="597" type="curve" smooth="yes"/>
      <point x="156" y="636" type="line"/>
      <point x="169" y="596" type="line" smooth="yes"/>
      <point x="176" y="575"/>
      <point x="208" y="572"/>
      <point x="237" y="572" type="curve" smooth="yes"/>
      <point x="259" y="572" type="line" smooth="yes"/>
      <point x="272" y="572"/>
      <point x="279" y="575"/>
      <point x="279" y="582" type="curve" smooth="yes"/>
      <point x="279" y="586"/>
      <point x="277" y="591"/>
      <point x="273" y="597" type="curve" smooth="yes"/>
      <point x="213" y="699" type="line" smooth="yes"/>
      <point x="203" y="717"/>
      <point x="186" y="718"/>
      <point x="162" y="718" type="curve" smooth="yes"/>
    </contour>
    <contour>
      <point x="153" y="728" type="move" name="tilde"/>
    </contour>
    <contour>
      <point x="290" y="652" type="move" name="top"/>
    </contour>
    <contour>
      <point x="157" y="523" type="move" name="_top"/>
    </contour>
  </outline>
</glyph>
<glyph name="grave.alt" format="1">
  <advance width="320"/>
  <outline>
    <contour>
      <point x="116" y="699"/>
      <point x="99" y="696"/>
      <point x="99" y="685" type="curve" smooth="yes"/>
      <point x="99" y="675"/>
      <point x="103" y="673"/>
      <point x="171" y="585" type="curve" smooth="yes"/>
      <point x="181" y="573"/>
      <point x="195" y="560"/>
      <point x="233" y="560" type="curve" smooth="yes"/>
      <point x="257" y="560"/>
      <point x="264" y="564"/>
      <point x="264" y="575" type="curve" smooth="yes"/>
      <point x="264" y="584"/>
      <point x="257" y="607"/>
      <point x="231" y="672" type="curve" smooth="yes"/>
      <point x="222" y="693"/>
      <point x="186" y="699"/>
      <point x="146" y="699" type="curve" smooth="yes"/>
    </contour>
    <contour>
      <point x="203" y="700" type="move" name="top"/>
    </contour>
    <contour>
      <point x="213" y="565" type="move" name="_top"/>
    </contour>
  </outline>
</glyph>
<glyph name="hookabovecomb.alt" format="1">
  <advance width="300"/>
  <outline>
    <contour>
      <point x="10" y="614"/>
      <point x="-2" y="609"/>
      <point x="-21" y="600" type="curve" smooth="yes"/>
      <point x="-31" y="595"/>
      <point x="-40" y="588"/>
      <point x="-40" y="584" type="curve" smooth="yes"/>
      <point x="-40" y="573"/>
      <point x="-23" y="563"/>
      <point x="4" y="563" type="curve" smooth="yes"/>
      <point x="21" y="563"/>
      <point x="43" y="577"/>
      <point x="53" y="585" type="curve" smooth="yes"/>
      <point x="73" y="601"/>
      <point x="79" y="616"/>
      <point x="79" y="632" type="curve" smooth="yes"/>
      <point x="79" y="672"/>
      <point x="44" y="698"/>
      <point x="-14" y="698" type="curve" smooth="yes"/>
      <point x="-49" y="698"/>
      <point x="-94" y="683"/>
      <point x="-94" y="670" type="curve" smooth="yes"/>
      <point x="-94" y="655"/>
      <point x="-72" y="628"/>
      <point x="-64" y="628" type="curve" smooth="yes"/>
      <point x="-55" y="628"/>
      <point x="-44" y="645"/>
      <point x="-11" y="645" type="curve" smooth="yes"/>
      <point x="-1" y="645"/>
      <point x="10" y="639"/>
      <point x="10" y="628" type="curve" smooth="yes"/>
    </contour>
    <contour>
      <point x="1" y="700" type="move" name="top"/>
    </contour>
    <contour>
      <point x="0" y="562" type="move" name="_top"/>
    </contour>
  </outline>
</glyph>
<glyph name="tilde.alt" format="1">
  <advance width="365"/>
  <outline>
    <contour>
      <point x="55" y="694"/>
      <point x="20" y="660"/>
      <point x="8" y="624" type="curve" smooth="yes"/>
      <point x="3" y="610"/>
      <point x="4" y="590"/>
      <point x="26" y="583" type="curve" smooth="yes"/>
      <point x="36" y="580" type="line" smooth="yes"/>
      <point x="49" y="576"/>
      <point x="59" y="576"/>
      <point x="73" y="595" type="curve" smooth="yes"/>
      <point x="84" y="609"/>
      <point x="95" y="611"/>
      <point x="103" y="611" type="curve" smooth="yes"/>
      <point x="133" y="609"/>
      <point x="200" y="582"/>
      <point x="231" y="582" type="curve" smooth="yes"/>
      <point x="283" y="582"/>
      <point x="318" y="616"/>
      <point x="330" y="652" type="curve" smooth="yes"/>
      <point x="335" y="666"/>
      <point x="334" y="686"/>
      <point x="312" y="693" type="curve" smooth="yes"/>
      <point x="302" y="696" type="line" smooth="yes"/>
      <point x="289" y="700"/>
      <point x="279" y="700"/>
      <point x="265" y="681" type="curve" smooth="yes"/>
      <point x="254" y="667"/>
      <point x="243" y="665"/>
      <point x="235" y="665" type="curve" smooth="yes"/>
      <point x="205" y="667"/>
      <point x="138" y="694"/>
      <point x="107" y="694" type="curve" smooth="yes"/>
    </contour>
    <contour>
      <point x="183" y="523" type="move" name="_top"/>
    </contour>
    <contour>
      <point x="171" y="600" type="move" name="_tilde"/>
    </contour>
  </outline>
</glyph>
